<?xml version="1.0" encoding="utf-8"?>
<!-- Generator: Adobe Illustrator 27.5.0, SVG Export Plug-In . SVG Version: 6.00 Build 0)  -->
<svg version="1.1" id="Слой_1" xmlns="http://www.w3.org/2000/svg"
	xmlns:xlink="http://www.w3.org/1999/xlink" x="0px" y="0px"
	viewBox="0 0 2529.367 2000" style="enable-background:new 0 0 2529.367 2000;"
	xml:space="preserve">
<g>
	<rect style="fill:#FAFAFA;" width="2529.367" height="2000"/>
	<g>
		<linearGradient id="SVGID_1_" gradientUnits="userSpaceOnUse" x1="1286.9657" y1="1725.1582" x2="1286.9657" y2="-218.7955">
			<stop  offset="0" style="stop-color:#40D5E6"/>
			<stop  offset="1" style="stop-color:#5577FF"/>
		</linearGradient>
		<path style="fill:url(#SVGID_1_);" d="M1854.665,184.026c-343.306-118.527-567.825,142.99-567.825,142.99
			s-223.323-257.994-567.826-142.99c-293.987,98.14-280.249,384.738-280.249,384.738
			c26.522,521.787,848.074,1070.255,848.074,1070.255s821.551-548.468,848.074-1070.255
			C2134.914,568.765,2156.838,288.351,1854.665,184.026z"/>
		<g>
			<polygon style="fill:#B4C7FD;" points="1592.08,922.904 1588.932,922.904 1588.932,300.262 1304.271,300.262 1304.271,297.112 
				1592.08,297.112 			"/>
		</g>
		<g style="opacity:0.72;">
			<defs>
				<filter id="Adobe_OpacityMaskFilter" filterUnits="userSpaceOnUse" x="1648.53" y="575.956" width="464.745" height="788.714">
					<feFlood  style="flood-color:white;flood-opacity:1" result="back"/>
					<feBlend  in="SourceGraphic" in2="back" mode="normal"/>
				</filter>
			</defs>
			
				<mask maskUnits="userSpaceOnUse" x="1648.53" y="575.956" width="464.745" height="788.714" id="SVGID_00000130623164328207313880000011442172442881450161_">
				<g style="filter:url(#Adobe_OpacityMaskFilter);">
					<defs>
						
							<filter id="Adobe_OpacityMaskFilter_00000164495894600104578100000013514662191734748548_" filterUnits="userSpaceOnUse" x="1648.53" y="575.956" width="464.745" height="788.714">
							<feFlood  style="flood-color:white;flood-opacity:1" result="back"/>
							<feBlend  in="SourceGraphic" in2="back" mode="normal"/>
						</filter>
					</defs>
					
						<mask maskUnits="userSpaceOnUse" x="1648.53" y="575.956" width="464.745" height="788.714" id="SVGID_00000130623164328207313880000011442172442881450161_">
						<g style="filter:url(#Adobe_OpacityMaskFilter_00000164495894600104578100000013514662191734748548_);">
						</g>
					</mask>
					
						<linearGradient id="SVGID_00000114067983367989194860000017768301652087662521_" gradientUnits="userSpaceOnUse" x1="1880.9028" y1="1344.28" x2="1880.9028" y2="704.0858">
						<stop  offset="0" style="stop-color:#000000"/>
						<stop  offset="0.2021" style="stop-color:#FFFFFF"/>
						<stop  offset="1" style="stop-color:#FFFFFF"/>
					</linearGradient>
					
						<path style="mask:url(#SVGID_00000130623164328207313880000011442172442881450161_);fill:url(#SVGID_00000114067983367989194860000017768301652087662521_);" d="
						M2073.134,1364.67h-384.462c-22.17,0-40.142-17.972-40.142-40.142V616.098c0-22.17,17.972-40.142,40.142-40.142h384.462
						c22.169,0,40.142,17.972,40.142,40.142v708.431C2113.275,1346.698,2095.303,1364.67,2073.134,1364.67z"/>
				</g>
			</mask>
			
				<linearGradient id="SVGID_00000041994526464307344720000014129775208213517979_" gradientUnits="userSpaceOnUse" x1="1880.9028" y1="1344.28" x2="1880.9028" y2="704.0858">
				<stop  offset="0" style="stop-color:#40CDE6"/>
				<stop  offset="0.2021" style="stop-color:#40CDE6"/>
				<stop  offset="1" style="stop-color:#5577FF"/>
			</linearGradient>
			<path style="fill:url(#SVGID_00000041994526464307344720000014129775208213517979_);" d="M2073.134,1364.67h-384.462
				c-22.17,0-40.142-17.972-40.142-40.142V616.098c0-22.17,17.972-40.142,40.142-40.142h384.462
				c22.169,0,40.142,17.972,40.142,40.142v708.431C2113.275,1346.698,2095.303,1364.67,2073.134,1364.67z"/>
		</g>
		
			<linearGradient id="SVGID_00000128460735803215000060000011335430169829161863_" gradientUnits="userSpaceOnUse" x1="1663.8887" y1="411.4623" x2="1938.2402" y2="411.4623">
			<stop  offset="0" style="stop-color:#409EE6"/>
			<stop  offset="1" style="stop-color:#5577FF"/>
		</linearGradient>
		<path style="opacity:0.72;fill:url(#SVGID_00000128460735803215000060000011335430169829161863_);" d="M1905.999,548.639h-209.868
			c-17.807,0-32.242-14.435-32.242-32.241V306.528c0-17.807,14.436-32.242,32.242-32.242h209.868
			c17.807,0,32.241,14.436,32.241,32.242v209.869C1938.24,534.204,1923.806,548.639,1905.999,548.639z"/>
		<g>
			<g>
				<rect x="1692.904" y="348.827" style="fill:#42CDE8;" width="1.1" height="140.949"/>
			</g>
			<g>
				<rect x="1746.341" y="348.827" style="fill:#42CDE8;" width="1.099" height="140.949"/>
			</g>
			<g>
				<rect x="1799.776" y="348.827" style="fill:#42CDE8;" width="1.1" height="140.949"/>
			</g>
			<g>
				<rect x="1853.213" y="348.827" style="fill:#42CDE8;" width="1.099" height="140.949"/>
			</g>
			<g>
				<rect x="1906.648" y="348.827" style="fill:#42CDE8;" width="1.1" height="140.949"/>
			</g>
		</g>
		
			<linearGradient id="SVGID_00000075131523986741245290000015084277133111280567_" gradientUnits="userSpaceOnUse" x1="1693.4551" y1="424.3388" x2="1907.1973" y2="424.3388">
			<stop  offset="0" style="stop-color:#D5E4FF"/>
			<stop  offset="1" style="stop-color:#EDFFFE"/>
		</linearGradient>
		<path style="fill:url(#SVGID_00000075131523986741245290000015084277133111280567_);" d="M1693.455,432.626
			c0,0,19.806,12.002,40.85-9.715c21.045-21.718,43.739-38.863,65.196-20.574c21.457,18.287,34.661,22.859,56.118,2.285
			c21.457-20.574,19.807-45.721,51.578-45.721v130.875h-213.742V432.626z"/>
		<rect x="1693.455" y="337.087" style="fill:#7BD6E8;" width="21.185" height="5.129"/>
		<rect x="1746.891" y="337.087" style="fill:#7BD6E8;" width="13.278" height="5.129"/>
		<rect x="1800.326" y="337.087" style="fill:#7BD6E8;" width="16.364" height="5.129"/>
		<rect x="1853.762" y="337.087" style="fill:#7BD6E8;" width="25.221" height="5.129"/>
		<rect x="1907.197" y="337.087" style="fill:#7BD6E8;" width="8.795" height="5.129"/>
		
			<linearGradient id="SVGID_00000062884594660525670340000006250984510815602837_" gradientUnits="userSpaceOnUse" x1="1694.0039" y1="515.542" x2="1799.7764" y2="515.542">
			<stop  offset="0" style="stop-color:#D5E4FF"/>
			<stop  offset="1" style="stop-color:#EDFFFE"/>
		</linearGradient>
		
			<rect x="1694.004" y="509.366" style="fill:url(#SVGID_00000062884594660525670340000006250984510815602837_);" width="105.772" height="12.352"/>
		<g>
			<g>
				
					<linearGradient id="SVGID_00000049197927174231576110000017049111835449912970_" gradientUnits="userSpaceOnUse" x1="1680.8984" y1="1176.7676" x2="1682.9326" y2="1176.7676">
					<stop  offset="0" style="stop-color:#D5E4FF"/>
					<stop  offset="1" style="stop-color:#EDFFFE"/>
				</linearGradient>
				
					<rect x="1680.898" y="1046.406" style="fill:url(#SVGID_00000049197927174231576110000017049111835449912970_);" width="2.034" height="260.723"/>
			</g>
			<g>
				
					<linearGradient id="SVGID_00000114033510137714697890000011124618561008656318_" gradientUnits="userSpaceOnUse" x1="1779.7422" y1="1176.7676" x2="1781.7754" y2="1176.7676">
					<stop  offset="0" style="stop-color:#D5E4FF"/>
					<stop  offset="1" style="stop-color:#EDFFFE"/>
				</linearGradient>
				
					<rect x="1779.742" y="1046.406" style="fill:url(#SVGID_00000114033510137714697890000011124618561008656318_);" width="2.033" height="260.723"/>
			</g>
			<g>
				
					<linearGradient id="SVGID_00000070813416201401004020000009951693981288990088_" gradientUnits="userSpaceOnUse" x1="1878.5859" y1="1176.7676" x2="1880.6191" y2="1176.7676">
					<stop  offset="0" style="stop-color:#D5E4FF"/>
					<stop  offset="1" style="stop-color:#EDFFFE"/>
				</linearGradient>
				
					<rect x="1878.586" y="1046.406" style="fill:url(#SVGID_00000070813416201401004020000009951693981288990088_);" width="2.033" height="260.723"/>
			</g>
			<g>
				
					<linearGradient id="SVGID_00000018224088134777111700000006053274401370348698_" gradientUnits="userSpaceOnUse" x1="1977.4297" y1="1176.7676" x2="1979.4629" y2="1176.7676">
					<stop  offset="0" style="stop-color:#D5E4FF"/>
					<stop  offset="1" style="stop-color:#EDFFFE"/>
				</linearGradient>
				
					<rect x="1977.43" y="1046.406" style="fill:url(#SVGID_00000018224088134777111700000006053274401370348698_);" width="2.033" height="260.723"/>
			</g>
			<g>
				
					<linearGradient id="SVGID_00000144305752587820330870000014286194525775347389_" gradientUnits="userSpaceOnUse" x1="2076.2725" y1="1176.7676" x2="2078.3066" y2="1176.7676">
					<stop  offset="0" style="stop-color:#D5E4FF"/>
					<stop  offset="1" style="stop-color:#EDFFFE"/>
				</linearGradient>
				
					<rect x="2076.272" y="1046.406" style="fill:url(#SVGID_00000144305752587820330870000014286194525775347389_);" width="2.034" height="260.723"/>
			</g>
		</g>
		
			<linearGradient id="SVGID_00000026869779518094656030000015653035374902946447_" gradientUnits="userSpaceOnUse" x1="1681.916" y1="1186.0864" x2="2077.2891" y2="1186.0864">
			<stop  offset="0" style="stop-color:#D5E4FF"/>
			<stop  offset="1" style="stop-color:#EDFFFE"/>
		</linearGradient>
		<path style="fill:url(#SVGID_00000026869779518094656030000015653035374902946447_);" d="M1681.916,1201.415
			c0,0,40.275,33.917,79.202-6.255s83.827-53.597,123.517-19.769c39.689,33.829,55.138-12.595,94.828-50.652
			c39.689-38.058,39.055-59.696,97.826-59.696v242.087h-395.373V1201.415z"/>
		
			<linearGradient id="SVGID_00000140001116026694636280000009831945510346700974_" gradientUnits="userSpaceOnUse" x1="1681.916" y1="1029.4341" x2="1721.1045" y2="1029.4341">
			<stop  offset="0" style="stop-color:#D5E4FF"/>
			<stop  offset="1" style="stop-color:#EDFFFE"/>
		</linearGradient>
		
			<rect x="1681.916" y="1024.689" style="fill:url(#SVGID_00000140001116026694636280000009831945510346700974_);" width="39.188" height="9.489"/>
		
			<linearGradient id="SVGID_00000168815940246306533370000007069504783298299024_" gradientUnits="userSpaceOnUse" x1="1780.7598" y1="1029.4341" x2="1805.3213" y2="1029.4341">
			<stop  offset="0" style="stop-color:#D5E4FF"/>
			<stop  offset="1" style="stop-color:#EDFFFE"/>
		</linearGradient>
		
			<rect x="1780.76" y="1024.689" style="fill:url(#SVGID_00000168815940246306533370000007069504783298299024_);" width="24.562" height="9.489"/>
		
			<linearGradient id="SVGID_00000004527297507059462800000017902008926927312277_" gradientUnits="userSpaceOnUse" x1="1879.6025" y1="1029.4341" x2="1909.873" y2="1029.4341">
			<stop  offset="0" style="stop-color:#D5E4FF"/>
			<stop  offset="1" style="stop-color:#EDFFFE"/>
		</linearGradient>
		
			<rect x="1879.603" y="1024.689" style="fill:url(#SVGID_00000004527297507059462800000017902008926927312277_);" width="30.271" height="9.489"/>
		
			<linearGradient id="SVGID_00000084507884483562276330000008087409995701843369_" gradientUnits="userSpaceOnUse" x1="1977.4297" y1="1029.4341" x2="2007.6992" y2="1029.4341">
			<stop  offset="0" style="stop-color:#D5E4FF"/>
			<stop  offset="1" style="stop-color:#EDFFFE"/>
		</linearGradient>
		
			<rect x="1977.43" y="1024.689" style="fill:url(#SVGID_00000084507884483562276330000008087409995701843369_);" width="30.27" height="9.489"/>
		
			<linearGradient id="SVGID_00000027588589282925430330000013777262328461894569_" gradientUnits="userSpaceOnUse" x1="1927.834" y1="861.6157" x2="2060.0059" y2="861.6157">
			<stop  offset="0" style="stop-color:#D5E4FF"/>
			<stop  offset="1" style="stop-color:#EDFFFE"/>
		</linearGradient>
		
			<rect x="1927.834" y="853.257" style="fill:url(#SVGID_00000027588589282925430330000013777262328461894569_);" width="132.172" height="16.718"/>
		
			<linearGradient id="SVGID_00000003806551471244614330000017314583913680285619_" gradientUnits="userSpaceOnUse" x1="1927.834" y1="931.6924" x2="2049.1602" y2="931.6924">
			<stop  offset="0" style="stop-color:#D5E4FF"/>
			<stop  offset="1" style="stop-color:#EDFFFE"/>
		</linearGradient>
		
			<rect x="1927.834" y="923.334" style="fill:url(#SVGID_00000003806551471244614330000017314583913680285619_);" width="121.326" height="16.717"/>
		
			<linearGradient id="SVGID_00000004511587886463009300000010585358657513944737_" gradientUnits="userSpaceOnUse" x1="1927.834" y1="896.6538" x2="2032.8086" y2="896.6538">
			<stop  offset="0" style="stop-color:#D5E4FF"/>
			<stop  offset="1" style="stop-color:#EDFFFE"/>
		</linearGradient>
		
			<rect x="1927.834" y="888.295" style="fill:url(#SVGID_00000004511587886463009300000010585358657513944737_);" width="104.975" height="16.718"/>
		<path style="fill:#E4F4FE;" d="M1809.336,829.394c0,12.764-10.347,23.11-23.109,23.11c-12.764,0-23.11-10.347-23.11-23.11
			c0-12.763,10.347-23.109,23.11-23.109C1798.989,806.285,1809.336,816.632,1809.336,829.394z"/>
		<path style="fill:#E4F4FE;" d="M1827.913,904.733v43.949c-12.763,5.806-26.954,9.033-41.89,9.033
			c-14.937,0-29.127-3.228-41.89-9.033v-43.949c0-23.127,18.747-41.89,41.89-41.89S1827.913,881.606,1827.913,904.733z"/>
		<g>
			<path style="fill:#E4F4FE;" d="M1786.023,960.464c-15.014,0-29.49-3.122-43.027-9.279c-37.104-16.863-61.08-54.085-61.08-94.828
				c0-57.405,46.702-104.107,104.107-104.107s104.107,46.702,104.107,104.107c0,40.743-23.976,77.965-61.081,94.828
				C1815.514,957.342,1801.037,960.464,1786.023,960.464z M1786.023,757.745c-54.375,0-98.611,44.237-98.611,98.611
				c0,38.593,22.711,73.852,57.858,89.825c12.818,5.83,26.529,8.786,40.753,8.786c14.223,0,27.934-2.956,40.752-8.786
				c35.148-15.974,57.859-51.232,57.859-89.825C1884.635,801.982,1840.398,757.745,1786.023,757.745z"/>
		</g>
		<g>
			
				<linearGradient id="SVGID_00000042007886774570712760000009771867980693671066_" gradientUnits="userSpaceOnUse" x1="1934.9668" y1="749.4746" x2="2050.1602" y2="749.4746">
				<stop  offset="0" style="stop-color:#D5E4FF"/>
				<stop  offset="1" style="stop-color:#EDFFFE"/>
			</linearGradient>
			<path style="fill:url(#SVGID_00000042007886774570712760000009771867980693671066_);" d="M1992.564,807.071
				c-31.76,0-57.598-25.838-57.598-57.597s25.838-57.597,57.598-57.597c31.758,0,57.596,25.838,57.596,57.597
				S2024.322,807.071,1992.564,807.071z M1992.564,693.878c-30.656,0-55.598,24.94-55.598,55.597
				c0,30.656,24.941,55.597,55.598,55.597s55.596-24.94,55.596-55.597C2048.16,718.818,2023.221,693.878,1992.564,693.878z"/>
		</g>
		
			<linearGradient id="SVGID_00000132789974677656081310000010783720786867542709_" gradientUnits="userSpaceOnUse" x1="1781.3066" y1="631.6713" x2="1876.0781" y2="631.6713">
			<stop  offset="0" style="stop-color:#D5E4FF"/>
			<stop  offset="1" style="stop-color:#EDFFFE"/>
		</linearGradient>
		
			<rect x="1781.307" y="624.114" style="fill:url(#SVGID_00000132789974677656081310000010783720786867542709_);" width="94.771" height="15.114"/>
		
			<linearGradient id="SVGID_00000123407936047908719990000012267198949254495375_" gradientUnits="userSpaceOnUse" x1="1795.2871" y1="670.6187" x2="1876.0781" y2="670.6187">
			<stop  offset="0" style="stop-color:#D5E4FF"/>
			<stop  offset="1" style="stop-color:#EDFFFE"/>
		</linearGradient>
		
			<rect x="1795.287" y="663.062" style="fill:url(#SVGID_00000123407936047908719990000012267198949254495375_);" width="80.791" height="15.114"/>
		
			<linearGradient id="SVGID_00000091715022136438357500000003484956600205095615_" gradientUnits="userSpaceOnUse" x1="1746.168" y1="709.5654" x2="1876.0781" y2="709.5654">
			<stop  offset="0" style="stop-color:#D5E4FF"/>
			<stop  offset="1" style="stop-color:#EDFFFE"/>
		</linearGradient>
		
			<rect x="1746.168" y="702.009" style="fill:url(#SVGID_00000091715022136438357500000003484956600205095615_);" width="129.91" height="15.113"/>
		<defs>
			
				<filter id="Adobe_OpacityMaskFilter_00000144299805212349696520000000417813529719259288_" filterUnits="userSpaceOnUse" x="394.116" y="335.636" width="1176.669" height="940.871">
				<feFlood  style="flood-color:white;flood-opacity:1" result="back"/>
				<feBlend  in="SourceGraphic" in2="back" mode="normal"/>
			</filter>
		</defs>
		
			<mask maskUnits="userSpaceOnUse" x="394.116" y="335.636" width="1176.669" height="940.871" id="SVGID_00000088847093649694810290000013614534507781807528_">
			<g style="filter:url(#Adobe_OpacityMaskFilter_00000144299805212349696520000000417813529719259288_);">
				<defs>
					
						<filter id="Adobe_OpacityMaskFilter_00000103979139964147933090000015212490054929781911_" filterUnits="userSpaceOnUse" x="394.116" y="335.636" width="1176.669" height="940.871">
						<feFlood  style="flood-color:white;flood-opacity:1" result="back"/>
						<feBlend  in="SourceGraphic" in2="back" mode="normal"/>
					</filter>
				</defs>
				
					<mask maskUnits="userSpaceOnUse" x="394.116" y="335.636" width="1176.669" height="940.871" id="SVGID_00000088847093649694810290000013614534507781807528_">
					<g style="filter:url(#Adobe_OpacityMaskFilter_00000103979139964147933090000015212490054929781911_);">
					</g>
				</mask>
				
					<linearGradient id="SVGID_00000039819916921874128400000014064530166408004264_" gradientUnits="userSpaceOnUse" x1="982.4507" y1="1304.0997" x2="982.4507" y2="-13.1763">
					<stop  offset="0" style="stop-color:#000000"/>
					<stop  offset="0.2021" style="stop-color:#FFFFFF"/>
					<stop  offset="1" style="stop-color:#FFFFFF"/>
				</linearGradient>
				
					<path style="mask:url(#SVGID_00000088847093649694810290000013614534507781807528_);fill:url(#SVGID_00000039819916921874128400000014064530166408004264_);" d="
					M1510.696,1276.507H454.205c-33.187,0-60.089-26.902-60.089-60.089V395.725c0-33.187,26.902-60.089,60.089-60.089h1056.491
					c33.187,0,60.089,26.902,60.089,60.089v820.693C1570.785,1249.604,1543.883,1276.507,1510.696,1276.507z"/>
			</g>
		</mask>
		
			<linearGradient id="SVGID_00000050639714678090878290000017695654999017328821_" gradientUnits="userSpaceOnUse" x1="982.4507" y1="1304.0997" x2="982.4507" y2="-13.1763">
			<stop  offset="0" style="stop-color:#40CDE6"/>
			<stop  offset="0.2021" style="stop-color:#40CDE6"/>
			<stop  offset="1" style="stop-color:#5577FF"/>
		</linearGradient>
		<path style="fill:url(#SVGID_00000050639714678090878290000017695654999017328821_);" d="M1510.696,1276.507H454.205
			c-33.187,0-60.089-26.902-60.089-60.089V395.725c0-33.187,26.902-60.089,60.089-60.089h1056.491
			c33.187,0,60.089,26.902,60.089,60.089v820.693C1570.785,1249.604,1543.883,1276.507,1510.696,1276.507z"/>
		<g>
			<g>
				<g>
					
						<linearGradient id="SVGID_00000124851479792578402410000012045672590447790743_" gradientUnits="userSpaceOnUse" x1="963.2274" y1="752.3315" x2="1136.9053" y2="752.3315">
						<stop  offset="0" style="stop-color:#D5E4FF"/>
						<stop  offset="1" style="stop-color:#EDFFFE"/>
					</linearGradient>
					<path style="fill:url(#SVGID_00000124851479792578402410000012045672590447790743_);" d="M1087.196,673.856
						c-34.891-16.509-75.236-7.732-100.344,18.933c-6.079,6.455-11.264,13.959-15.263,22.411
						c-12.111,25.6-10.613,54.14,1.576,77.438c8.447,16.146,22.028,29.776,39.771,38.17c1.763,0.836,3.548,1.609,5.338,2.316
						c8.119,3.201,16.465,5.096,24.797,5.765c34.951,2.822,69.588-15.853,85.475-49.424
						C1149.05,746.122,1130.538,694.364,1087.196,673.856z M1108.902,780.171c-11.909,25.172-37.878,39.171-64.081,37.058
						c-6.245-0.504-12.505-1.922-18.591-4.326c-1.344-0.53-2.681-1.108-4.005-1.734c-13.302-6.294-23.482-16.514-29.815-28.617
						c-9.141-17.47-10.266-38.866-1.184-58.058c2.998-6.336,6.886-11.961,11.442-16.803c18.82-19.992,49.073-26.573,75.233-14.197
						C1110.398,708.869,1124.276,747.675,1108.902,780.171z"/>
				</g>
			</g>
			<g>
				<g>
					<path style="fill:#1A598C;" d="M992.411,782.551l-19.247,10.087c-12.189-23.298-13.687-51.838-1.576-77.438
						c4-8.452,9.185-15.956,15.263-22.411l15.818,14.901c-4.556,4.842-8.444,10.467-11.442,16.803
						C982.146,743.685,983.271,765.081,992.411,782.551z"/>
				</g>
			</g>
			<g>
				<g>
					<path style="fill:#2273B5;" d="M1026.23,812.902l-7.957,20.222c-1.79-0.707-3.575-1.481-5.338-2.316
						c-17.743-8.394-31.324-22.023-39.771-38.17l19.247-10.087c6.332,12.104,16.513,22.323,29.815,28.617
						C1023.55,811.794,1024.887,812.372,1026.23,812.902z"/>
				</g>
			</g>
		</g>
		<g>
			<g>
				<g>
					
						<linearGradient id="SVGID_00000101074462358968050230000002044348230301251761_" gradientUnits="userSpaceOnUse" x1="963.23" y1="487.9556" x2="1136.9039" y2="487.9556">
						<stop  offset="0" style="stop-color:#D5E4FF"/>
						<stop  offset="1" style="stop-color:#EDFFFE"/>
					</linearGradient>
					<path style="fill:url(#SVGID_00000101074462358968050230000002044348230301251761_);" d="M1128.542,525.085
						c16.508-34.891,7.732-75.236-18.933-100.344c-6.455-6.078-13.958-11.264-22.411-15.264
						c-25.599-12.11-54.139-10.613-77.438,1.576c-16.147,8.447-29.776,22.027-38.17,39.771c-0.835,1.763-1.609,3.547-2.316,5.338
						c-3.202,8.119-5.096,16.465-5.765,24.797c-2.822,34.951,15.853,69.588,49.425,85.475
						C1056.277,586.939,1108.035,568.427,1128.542,525.085z M1022.227,546.792c-25.171-11.909-39.17-37.878-37.058-64.08
						c0.504-6.246,1.922-12.506,4.326-18.592c0.531-1.344,1.109-2.682,1.735-4.006c6.293-13.301,16.514-23.482,28.617-29.813
						c17.469-9.141,38.866-10.267,58.057-1.183c6.336,2.996,11.962,6.885,16.804,11.441c19.992,18.819,26.573,49.072,14.196,75.232
						C1093.529,548.288,1054.724,562.165,1022.227,546.792z"/>
				</g>
			</g>
			<g>
				<g>
					<path style="fill:#4AAFFF;" d="M1019.848,430.301l-10.087-19.247c23.298-12.19,51.838-13.687,77.438-1.576
						c8.452,4,15.956,9.186,22.411,15.264l-14.9,15.818c-4.842-4.557-10.468-8.445-16.804-11.441
						C1058.714,420.034,1037.317,421.16,1019.848,430.301z"/>
				</g>
			</g>
			<g>
				<g>
					<path style="fill:#2273B5;" d="M989.496,464.12l-20.221-7.957c0.707-1.791,1.48-3.575,2.316-5.338
						c8.395-17.744,22.024-31.324,38.17-39.771l10.087,19.247c-12.103,6.331-22.324,16.513-28.617,29.813
						C990.606,461.439,990.027,462.776,989.496,464.12z"/>
				</g>
			</g>
			<g>
				<g>
					<path style="fill:#3788CC;" d="M963.51,480.96c0.669-8.332,2.563-16.678,5.765-24.797l20.221,7.957
						c-2.404,6.086-3.822,12.346-4.326,18.592L963.51,480.96z"/>
				</g>
			</g>
		</g>
		<g>
			<g>
				
					<linearGradient id="SVGID_00000148652386969665423730000009410104956787838358_" gradientUnits="userSpaceOnUse" x1="1201.9746" y1="620.1426" x2="1229.3618" y2="620.1426">
					<stop  offset="0" style="stop-color:#D5E4FF"/>
					<stop  offset="1" style="stop-color:#EDFFFE"/>
				</linearGradient>
				
					<rect x="1201.975" y="401.116" style="fill:url(#SVGID_00000148652386969665423730000009410104956787838358_);" width="27.387" height="438.053"/>
			</g>
			<g>
				
					<linearGradient id="SVGID_00000175297525669643967870000011755099992998836390_" gradientUnits="userSpaceOnUse" x1="1274.9121" y1="620.1426" x2="1302.2998" y2="620.1426">
					<stop  offset="0" style="stop-color:#D5E4FF"/>
					<stop  offset="1" style="stop-color:#EDFFFE"/>
				</linearGradient>
				
					<rect x="1274.912" y="401.116" style="fill:url(#SVGID_00000175297525669643967870000011755099992998836390_);" width="27.388" height="438.053"/>
			</g>
			<g>
				
					<linearGradient id="SVGID_00000155105140289783601160000012028675039037390731_" gradientUnits="userSpaceOnUse" x1="1347.8506" y1="620.1426" x2="1375.2383" y2="620.1426">
					<stop  offset="0" style="stop-color:#D5E4FF"/>
					<stop  offset="1" style="stop-color:#EDFFFE"/>
				</linearGradient>
				
					<rect x="1347.851" y="401.116" style="fill:url(#SVGID_00000155105140289783601160000012028675039037390731_);" width="27.388" height="438.053"/>
			</g>
			<g>
				
					<linearGradient id="SVGID_00000049211633244156533470000010433686217203989650_" gradientUnits="userSpaceOnUse" x1="1420.7881" y1="620.1426" x2="1448.1758" y2="620.1426">
					<stop  offset="0" style="stop-color:#D5E4FF"/>
					<stop  offset="1" style="stop-color:#EDFFFE"/>
				</linearGradient>
				
					<rect x="1420.788" y="401.116" style="fill:url(#SVGID_00000049211633244156533470000010433686217203989650_);" width="27.388" height="438.053"/>
			</g>
		</g>
		<g>
			<polygon style="fill:#E2F3FE;" points="1023.392,896.11 861.276,896.11 861.276,892.889 1020.17,892.889 1020.17,831.642 
				1023.392,831.642 			"/>
		</g>
		<g>
			<polygon style="fill:#E2F3FE;" points="718.1,896.11 507.248,896.11 507.248,892.889 714.878,892.889 714.878,809.449 
				718.1,809.449 			"/>
		</g>
		<g>
			
				<linearGradient id="SVGID_00000174579541971359981340000013175088785558255233_" gradientUnits="userSpaceOnUse" x1="507.2476" y1="869.0195" x2="652.3301" y2="869.0195">
				<stop  offset="0" style="stop-color:#D5E4FF"/>
				<stop  offset="1" style="stop-color:#EDFFFE"/>
			</linearGradient>
			
				<rect x="507.248" y="859.354" style="fill:url(#SVGID_00000174579541971359981340000013175088785558255233_);" width="145.083" height="19.332"/>
		</g>
		<g>
			
				<linearGradient id="SVGID_00000002346361061693688850000014677970218298533793_" gradientUnits="userSpaceOnUse" x1="861.2764" y1="869.0195" x2="946.6104" y2="869.0195">
				<stop  offset="0" style="stop-color:#D5E4FF"/>
				<stop  offset="1" style="stop-color:#EDFFFE"/>
			</linearGradient>
			
				<rect x="861.276" y="859.354" style="fill:url(#SVGID_00000002346361061693688850000014677970218298533793_);" width="85.334" height="19.332"/>
		</g>
		<rect x="476.156" y="1006.252" style="fill:#FFFFFF;" width="828.902" height="22.732"/>
		<rect x="476.156" y="1059.292" style="fill:#FFFFFF;" width="890.473" height="22.73"/>
		<rect x="476.156" y="1112.331" style="fill:#FFFFFF;" width="679.537" height="22.732"/>
		<rect x="476.156" y="1006.252" style="fill:#2273B5;" width="504.672" height="22.732"/>
		<rect x="476.156" y="1059.292" style="fill:#2273B5;" width="545.309" height="22.73"/>
		<rect x="476.156" y="1112.331" style="fill:#2273B5;" width="353.83" height="22.732"/>
		<polygon style="fill:#FFFFFF;" points="817.347,586.717 716.662,586.717 716.662,486.03 653.937,486.03 653.937,586.717 
			553.251,586.717 553.251,649.44 653.937,649.44 653.937,750.126 716.662,750.126 716.662,649.44 817.347,649.44 		"/>
		<g>
			<path style="fill:#F3F3F3;" d="M685.299,818.426c-110.472,0-200.348-89.876-200.348-200.348
				c0-110.473,89.876-200.349,200.348-200.349s200.348,89.876,200.348,200.349C885.648,728.55,795.771,818.426,685.299,818.426z
				 M685.299,426.268c-105.765,0-191.81,86.046-191.81,191.811s86.045,191.81,191.81,191.81c105.764,0,191.81-86.045,191.81-191.81
				S791.063,426.268,685.299,426.268z"/>
		</g>
		<g>
			<g>
				<g>
					<g>
						<path style="fill:#EEA886;" d="M841.794,1083.862c0,0,12.926-4.057,13.968-11.718c0.886-6.515,6.735-14.294,8.531-16.692
							c2.403-3.209,6.11-15.804,10.185-12.814c4.076,2.991-5.112,21.058-6.281,25.232c-1.17,4.173,16.511-3.769,20.886-2.676
							c4.375,1.092,15.869,31.123,3.104,35.169c-12.766,4.046-29.074-0.057-31.178,1.1c-2.104,1.157-9.172,3.312-9.172,3.312
							L841.794,1083.862z"/>
					</g>
				</g>
			</g>
			<g>
				<g>
					<g>
						<path style="fill:#EEA886;" d="M885.88,1065.436c0,0,39.903-9.792,43.109-8.219c3.206,1.573,3.608,3.767-0.084,4.837
							c-3.693,1.071-38.28,10.577-38.28,10.577s49.176-3.653,52.083-2.939c1.703,0.419,2.734,4.619,0.811,5.376
							c-1.924,0.756-50.457,7.165-50.457,7.165s45.921-3.329,48.175-2.006c1.972,1.158,1.953,5.25-1.436,5.732
							c-3.389,0.48-45.835,5.979-45.835,5.979s33.575-0.321,34.822,1.922c0.763,1.372,1.823,4.961-6.844,4.773
							c-8.667-0.188-29.157,1.516-29.157,1.516L885.88,1065.436z"/>
					</g>
				</g>
			</g>
			<g>
				<path style="fill:#DBDFF0;" d="M863.218,1116.482c0,0-111.626,24.75-133.839,19.285c-10.268-2.525-23.794-16.7-36.646-33.365
					c-4.237-5.488-8.392-11.248-12.345-16.948c-0.012-0.012-0.012-0.024-0.012-0.024c-15.768-22.767-28.125-44.589-28.125-44.589
					s-46.607-54.622-9.207-78.971c0,0,13.573-5.086,26.037,8.274c12.475,13.36,27.109,41.308,30.379,48.436
					c3.268,7.117,49.05,73.15,51.422,74.638c2.373,1.487,22.377-3.776,38.417-5.11c26.153-2.184,65.29-15.508,65.29-15.508
					L863.218,1116.482z"/>
			</g>
			<g>
				<path style="fill:#202338;" d="M702.692,1784.262c0,0,17.263,18.127,34.788,21.925c17.526,3.798,29.785,8.643,29.917,19.044
					c0.131,10.402-50.435,17.258-70.491,6.771c-29.932-15.65-32.975-10.933-36.293-18.756c-3.318-7.823,3.986-28.744,3.771-31.232
					C664.117,1778.938,702.692,1784.262,702.692,1784.262z"/>
			</g>
			<g>
				<path style="fill:#2F6B8C;" d="M700.752,1775.589c0,0,2.279,8.492,1.94,8.673c-0.339,0.179-39.492,4.566-38.309-2.248
					c0.96-5.527,2.331-11.534,2.331-11.534L700.752,1775.589z"/>
			</g>
			<g>
				<path style="fill:#202338;" d="M507.685,1788.988c0,0,12.699,17.658,29.686,21.73c16.749,4.016,27.602,11.658,28.423,21.769
					c0.821,10.11-39.487,23.349-67.809,5.591c-18.61-11.669-25.55-11.005-29.298-18.42c-3.749-7.414,1.964-28.192,1.588-30.6
					C469.81,1786.083,507.685,1788.988,507.685,1788.988z"/>
			</g>
			<g>
				<path style="fill:#2F6B8C;" d="M507.167,1780.259c0,0,0.837,8.535,0.518,8.729c-0.317,0.194-37.634,6.797-37.411,0.07
					c0.177-5.344,2.365-11.991,2.365-11.991L507.167,1780.259z"/>
			</g>
			<g>
				<path style="fill:#4B6E9E;" d="M661.26,1265.565c0,0,18.132,131.709,25.538,176.234c8.658,52.06,11.594,95.073,14.008,122.019
					c3.037,33.891,7.067,207.329,9.193,217.238c2.126,9.91-52.815,4.76-52.815,4.76s-28.78-226.106-37.826-262.199
					c-8.423-33.608-32.948-178.772-40.634-169.595c-7.685,9.177-31.217,173.62-36.908,200.126
					c-5.692,26.506-20.949,235.162-20.949,235.162s-51.823,8.307-62.258,0c0,0,8.176-186.058,11.803-235.752
					c1.382-18.938-11.98-226.723,20.045-310.514C507.381,1198.762,661.26,1265.565,661.26,1265.565z"/>
			</g>
			<path style="fill:#BCC0CF;" d="M608.06,949.688c0,0,47.981,9.921,53.674,14.963c6.181,5.367,17.081,57.917,17.731,72.556
				c0.651,14.639-5.784,75.787-11.965,98.557c-6.18,22.771-5.045,134.925-1.141,166.479c0,0-96.607,27.438-191.593,15.077
				c0,0,15.924-117.995,12.122-149.196c-4.87-39.974-16.59-132.07-16.59-132.07s8.409-64.152,16.867-71.31
				c8.457-7.156,66.734-15.056,66.734-15.056H608.06z"/>
			<path style="fill:#EEA886;" d="M588.225,801.327c0,0,57.715-21.356,54.107,55.343c-3.608,76.698-17.133,84.492-55.1,73.781
				c-37.966-10.712-41.148-59.119-46.092-82.405C536.196,824.76,569.352,804.676,588.225,801.327z"/>
			<path style="fill:#EEA886;" d="M615.609,960.071c0,0-11.878,7.854-56.913-11.985c0,0,1.272-30.875-7.562-59.713
				c-8.835-28.838,60.434,38.451,60.434,38.451c-0.727,0.513-0.866,3.396-0.451,7.415c0.351,3.408,1.098,7.632,2.223,11.917
				C615.871,955.798,615.609,951.656,615.609,960.071z"/>
			<path style="fill:#E2D2CA;" d="M549.163,886.086c0,0-0.164-20.488,8.356-22.374c8.521-1.886,12.909,9.958,12.909,9.958
				l6.86-0.369c0,0-6.131-20.762,1.992-25.522c8.123-4.76,56.715-0.578,62.813-7.568c6.098-6.99-2.745-48.507-16.003-52.582
				c-13.258-4.074-49.473-12.339-72.471,8.141c0,0-20.003,0.381-20.806,16.672C532.011,828.73,542.231,874.977,549.163,886.086z"/>
			<path style="fill:#A77860;" d="M613.341,946.156c-44.735-7.519-51.421-32.961-51.522-33.358
				c17.391,22.426,49.299,21.441,49.299,21.441C611.469,937.647,612.216,941.871,613.341,946.156z"/>
			<path style="fill:#434343;" d="M611.368,970.144c0,0,8.147,12.019,13.064,42.867c4.917,30.848,4.082,83.993,4.082,83.993
				l-11.328,1.377c0,0-17.146-108.385-14.196-127.269L611.368,970.144z"/>
			<path style="fill:#EEA886;" d="M567.163,855.013c-2.549-6.759-16.944-5.907-15.47,4.808c1.474,10.715,13.37,27.217,18.148,24.122
				C574.619,880.848,570.679,864.333,567.163,855.013z"/>
			<path style="fill:#DBDFF0;" d="M661.734,964.65c0,0,27.877,36.017,17.777,130.387c-18.25,170.528,29.544,444.271,29.544,444.271
				l-49.307,15.431c0,0-47.117-349.939-35.118-476.942c5.468-57.875,21.695-77.131-3.905-125.348
				C620.724,952.449,645.039,953.763,661.734,964.65z"/>
			<path style="fill:#DBDFF0;" d="M540.644,951.656c0,0,78.042,78.831,84.154,138.593c6.112,59.762,16.067,464.49,16.067,464.49
				l-185.796-10.819c0,0,17.077-213.648,21.245-240.374c4.167-26.727,12.79-180.183-6.016-251.391
				c-10.103-38.254,1.916-86.786,24.997-92.084C518.376,954.774,540.644,951.656,540.644,951.656z"/>
			<path style="fill:#DBDFF0;" d="M514.268,961.868c0,0,30.056,8.276,13.52,63.442c-12.952,43.209-14.701,52.486-14.701,52.486
				l-69.355-17.323c0,0,20.336-94.911,53.521-100.014C497.253,960.46,507.819,958.955,514.268,961.868z"/>
			<polygon style="fill:#616161;" points="653.128,1165.272 540.634,1325.325 437.907,1253.123 546.387,1090.249 			"/>
			<polygon style="fill:#E0CEC7;" points="640.865,1170.028 540.956,1312.177 449.721,1248.052 546.065,1103.397 			"/>
			<polygon style="fill:#616161;" points="610.146,1153.715 617.158,1143.737 580.273,1117.813 571.82,1126.777 			"/>
			<g>
				<g>
					<g>
						<g>
							<g>
								<path style="fill:#EEA886;" d="M599.512,1273.032c0,0-4.433-0.375-6.291-1.484c0,0-3.227-2.279-5.618-3.76
									c-0.76-0.468-1.433-0.858-1.894-1.064c-1.925-0.865-6.411-2.188-10.452-5.563c-4.038-3.369-17.717-22.396-17.717-22.396
									l8.184-10.313l6.285-10.749c0,0,31.848,4.93,35.975,7.636c0.402,0.267,0.789,0.545,1.133,0.834
									c3.272,2.63,4.601,5.963,6.161,7.537c0.569,0.583,5.84,6.751,5.423,9.141c-0.573,3.315-2.317,5.382-4.431,6.302
									c0,0-1.41,6.444-4.894,9.197c0,0-1.109,5.986-6.418,8.177C604.958,1266.526,603.151,1272.473,599.512,1273.032z"/>
							</g>
						</g>
					</g>
				</g>
			</g>
			<path style="fill:#A7AAB8;" d="M558.712,939.551c0,0,23.542,14.2,46.837,17.399l-12.393,19.768l-39.258-27.031L558.712,939.551z"
				/>
			<path style="fill:#A7AAB8;" d="M613.341,946.156c0,0-2.481,8.139-7.792,10.794l11.639,16.227l-0.426-21.521L613.341,946.156z"/>
			<path style="fill:#434343;" d="M605.549,956.95l9.216,12.85c0,0-5.83,7.375-18.391,1.787L605.549,956.95z"/>
			<path style="fill:#A7AAB8;" d="M692.733,1102.391v0.012c-4.237-5.488-8.392-11.248-12.345-16.948
				c-0.012-0.012-0.012-0.024-0.012-0.024s1.487-41.58,0.188-53.524C680.563,1031.906,694.149,1076.696,692.733,1102.391z"/>
			<path style="fill:#A7AAB8;" d="M501.218,1074.833c0,0-9.062,58.968-8.427,62.748
				C493.427,1141.361,451.769,1125.737,501.218,1074.833z"/>
			<path style="fill:#DBDFF0;" d="M517.862,965.563c6.292,2.435,8.673,13.604,6.087,45.97c-2.585,32.366-13.979,47.255-18.23,54.742
				c-4.251,7.486-27.63,53.636-23.428,59.707c4.202,6.071,43.894,45.23,46.191,48.42c2.298,3.189,46.613,43.302,46.613,43.302
				l-22.562,31.528c0,0-95.693-74.746-103.16-82.208c-7.466-7.462-29.782-23.143-21.528-49.211
				c8.389-26.496,23.466-88.524,26.145-93.374C456.669,1019.59,476.262,949.455,517.862,965.563z"/>
			<rect x="642.988" y="1053.729" style="fill:#C6CAD9;" width="21.901" height="33.439"/>
		</g>
		<g>
			<path style="fill:#202338;" d="M1516.377,1772.642c0,0,7.814,14.579,12.92,20.365c5.106,5.786,24.657,16.13,24.764,33.314
				c0.114,18.636-32.958,13.464-45.893,12.783s-13.913-10.637-19.359-21.188c-5.445-10.552-10.935-8.765-11.956-17.274
				c-1.021-8.51,5.274-28,5.274-28H1516.377z"/>
			<g>
				<path style="fill:#323657;" d="M1320.504,1275.873c0,0,36.431-84.897,40.817-105.79c1.988-9.467,7.452-33.005,10.914-52.338
					c1.144-6.369,2.103-12.927,2.921-19.35c0.004-0.015-0.001-0.024-0.001-0.024c3.248-25.641,4.078-49.03,4.078-49.03
					s19.347-66.311-22.106-70.358c0,0-14.767,5.12-15.265,6.283c-6.983,16.302-9.729,57.878-9.973,66.871
					c-0.198,7.307-10.922,81.019-11.078,83.627c-0.304,5.063-11.321,31.633-17.241,51.344c-12.893,42.924-19.69,76.791-19.69,76.791
					L1320.504,1275.873z"/>
			</g>
			
				<rect x="1216.246" y="1128.562" transform="matrix(-1 -1.224647e-16 1.224647e-16 -1 2619.3301 2420.5596)" style="fill:#ECF8FC;" width="186.838" height="163.436"/>
			<path style="fill:#EEA886;" d="M1259.182,1281.893c0,0,1.072,22.021,12.912,25.838c11.84,3.818,24.727,0.413,30.178-2.929
				c5.452-3.343,19.172-13.035,14.051-19.133C1299.888,1266.104,1259.182,1281.893,1259.182,1281.893z"/>
			<path style="fill:#EEA886;" d="M1265.215,1302.273c0,0-14.783,1.081-13.987-5.188c0.796-6.269,11.441-3.839,11.441-3.839
				L1265.215,1302.273z"/>
			<g>
				<g>
					<path style="fill:#EEA886;" d="M1615.566,1278.999c0,0,6.423,11.198,14.039,10.976c6.476-0.189,15.135,3.966,17.804,5.24
						c3.569,1.706,16.476,3.163,14.368,7.35c-2.106,4.186-21.367-1.444-25.632-1.874c-4.265-0.429,6.837,14.521,6.625,18.689
						s-27.055,19.287-33.437,8.234c-6.383-11.053-5.563-26.596-7.09-28.343c-1.525-1.746-4.977-7.879-4.977-7.879L1615.566,1278.999
						z"/>
				</g>
			</g>
			<g>
				<g>
					<path style="fill:#EEA886;" d="M1641.918,1316.488c0,0,17.188,34.988,16.285,38.16c-0.904,3.173-2.949,3.878-4.699,0.665
						c-1.75-3.212-17.633-33.384-17.633-33.384s13.038,44.41,12.908,47.179c-0.076,1.622-3.941,3.209-5.045,1.566
						c-1.104-1.644-16.685-45.042-16.685-45.042s12.095,41.482,11.25,43.747c-0.739,1.981-4.704,2.591-5.824-0.434
						c-1.12-3.025-14.644-40.998-14.644-40.998s6.799,30.654,4.868,32.139c-1.181,0.908-4.448,2.429-5.941-5.525
						c-1.493-7.955-7.101-26.432-7.101-26.432L1641.918,1316.488z"/>
				</g>
			</g>
			<g>
				<path style="fill:#202338;" d="M1319.484,1770.943c0,0-15.939,17.795-32.12,21.522c-16.181,3.729-27.5,8.484-27.621,18.695
					c-0.122,10.211,46.565,16.94,65.083,6.646c27.635-15.363,30.444-10.732,33.509-18.412c3.063-7.68-3.681-28.216-3.481-30.658
					C1355.1,1765.719,1319.484,1770.943,1319.484,1770.943z"/>
			</g>
			<g>
				<path style="fill:#81807E;" d="M1321.275,1762.43c0,0-2.104,8.337-1.791,8.514c0.313,0.176,36.463,4.483,35.369-2.207
					c-0.887-5.426-2.152-11.321-2.152-11.321L1321.275,1762.43z"/>
			</g>
			<g>
				<path style="fill:#81807E;" d="M1482.574,1767.014c0,0-1.514,7.954-1.22,8.146c0.293,0.19,36.657,6.686,36.452,0.081
					c-0.163-5.245-3.354-11.358-3.354-11.358L1482.574,1767.014z"/>
			</g>
			<g>
				<path style="fill:#292C47;" d="M1354.145,1263.386c0,0-13.148,127.676-19.985,171.384
					c-7.994,51.104-10.704,93.327-12.934,119.777c-2.804,33.27-3.346,196.921-5.309,206.648c-1.963,9.727,43.548,2.687,43.548,2.687
					s22.389-213.83,30.741-249.261c7.776-32.99,36.64-175.026,43.735-166.018c7.096,9.008,15.895,165.753,21.15,191.771
					c5.254,26.02,21.238,229.721,21.238,229.721s36.221,7.213,45.854-0.941c0,0,4.386-175.55,1.038-224.332
					c-1.277-18.59,21.782-222.906-7.786-305.159C1499.811,1196.193,1354.145,1263.386,1354.145,1263.386z"/>
			</g>
			<g>
				<path style="fill:#DBD8E3;" d="M1610.735,1281.357c0,0-9.884,11.418-19.165,9.714c-9.295-1.704-48.135-120.146-48.501-143.849
					c-0.281-19.225-10.802-69.982-10.802-69.982s0,0.028-0.014,0.085c-0.015,0.014-0.015,0.042-0.015,0.056
					c0,0.028-0.015,0.057-0.015,0.085c-1.041,3.803-15.238,56.476-15.731,81.784c-0.521,26.267,1.567,116.623,1.567,116.623
					l-35.18,9.422l-112.365,1.051l-25.646-10.473c0,0,2.803-29.05,3.844-49.457c0.648-12.972,3.17-36.195,2.521-58.813
					c0,0,0.408-23.845-1.957-34.111c-0.254-45.321-3-90.206-3-90.206c-1.521-20.549-2.578-39.759-3.184-57.688
					c4.958-2.62,10.915-5.69,15.689-7.958c14.76-7.027,35.322-16.491,48.52-22.548c7.73-3.549,15.294-6.141,15.294-6.141
					s52.744-5.056,57.025-4.788c1.353,0.084,7.943,2.38,16.591,5.676c18.703,7.098,54.758,21.548,60.504,25.675
					c8.422,6.027,26.225,149.288,27.026,159.315C1585.193,1152.898,1610.735,1281.357,1610.735,1281.357z"/>
			</g>
			<path style="fill:#1D2033;" d="M1348.254,1266.283c0,0,77.188,6.572,144.79,0v22.182c0,0-100.672,9.615-148.175-4.229
				L1348.254,1266.283z"/>
			<g>
				<path style="fill:#323657;" d="M1341.862,985.266c0.591,18.225,1.476,37.773,3.025,58.702c0,0,1.46,51.111,4.403,99.593
					c1,6.943,1.507,14.042,0.943,21.31c-0.732,9.478-1.76,19.829-3,30.632c-0.014,0.141-0.027,0.282-0.042,0.408
					c-0.296,2.563-0.605,5.141-0.915,7.746c0,0.042-0.015,0.07-0.015,0.113c-6.563,54.011-17.675,115.979-23.478,134.725
					c-1.225,3.916,3,7.535,6.014,10.324l21.111,13.309c0,0,8.704-80.122,11.592-107.318c2.788-26.252,11.563-61.447,15.407-95.741
					v-0.015c4.873-43.504,11.582-86.131,15.201-111.454c9.422-65.926,21.977-95.425,21.977-95.425
					C1408.088,953.966,1341.862,985.266,1341.862,985.266z"/>
			</g>
			<g>
				<path style="fill:#323657;" d="M1541.458,1148.301c1.636,21.997,41.876,150.419,47.225,149.858
					c9.389-0.984,40.956-10.925,40.956-10.925s-38.874-130.561-40.245-144.32c-0.997-10.016-16.942-160.232-25.359-166.266
					c-4.86-3.49-40.889-16.26-58.565-23.227c-3.232-1.277-13.887-5.287-16.781-6.386c-3.751,4.173-29.975,32.562-39.101,140.331
					c-1.538,18.162,3.319,56.628,6.563,88.022c3.462,33.493,7.295,59.635,10.105,87.644c5.535,55.185,9.408,99.095,9.408,99.095
					l54.921-24.451c8.886-4.448,21.194-22.69,17.852-32.05c-12.696-35.561-28.685-96.319-28.702-127.523
					c0,0,6.127-76.412,10.982-93.207C1530.717,1084.896,1539.379,1120.334,1541.458,1148.301z"/>
			</g>
			<path style="fill:#EEA886;" d="M1446.963,810.107c0,0-55.061-20.374-51.618,52.797s16.345,80.606,52.565,70.388
				c36.221-10.219,39.256-56.4,43.973-78.615C1496.599,832.462,1464.969,813.302,1446.963,810.107z"/>
			<path style="fill:#434343;" d="M1484.229,890.967c0,0,0.156-19.546-7.971-21.345c-8.129-1.799-12.315,9.5-12.315,9.5
				l-6.545-0.352c0,0,5.85-19.808-1.899-24.349c-7.75-4.541-54.107-0.552-59.924-7.221c-5.818-6.669,2.618-46.275,15.266-50.163
				c12.648-3.888,47.198-11.771,69.138,7.767c0,0,19.083,0.362,19.849,15.904C1500.592,836.25,1490.843,880.369,1484.229,890.967z"
				/>
			<path style="fill:#EEA886;" d="M1467.057,861.323c2.432-6.448,16.165-5.636,14.758,4.587
				c-1.406,10.222-12.755,25.965-17.313,23.012C1459.943,885.97,1463.703,870.215,1467.057,861.323z"/>
			<g>
				<path style="fill:#EEA987;" d="M1474.748,949.774c0,0-4.862-4.005,2.111-40.639c1.866-9.806-51.693,11.698-51.693,11.698
					s0.433,8.036,0.382,16.09c-0.017,3.61-0.136,7.214-0.433,10.112c-0.22,2.179-1.503,6.012-1.961,7.071
					C1420.73,959.693,1454.949,963.943,1474.748,949.774z"/>
			</g>
			<path style="fill:#A77860;" d="M1425.115,947.036c32.145-0.415,42.479-24.854,42.792-25.617
				c-16.937,17.157-42.359,15.505-42.359,15.505C1425.531,940.534,1425.412,944.138,1425.115,947.036z"/>
			<path style="fill:#E8734D;" d="M1438.053,968.744l-9.746,13.094c0,0,5.711,7.646,15.851,2.002L1438.053,968.744z"/>
			<path style="fill:#E8734D;" d="M1431.092,982.362c0,0-36.149,139.178-28.698,247.516l12.162,21.434l11.384-22.454
				c0,0,3.119-193.785,13.031-246.837L1431.092,982.362z"/>
			<path style="fill:#EEA987;" d="M1427.617,956.536l10.436,12.208c0,0,16.748-3.245,21.665-11.992
				C1464.635,948.004,1427.617,956.536,1427.617,956.536z"/>
			<path style="fill:#C4C1CC;" d="M1425.225,945.852c0,0,1.211,9.306,12.828,22.893l-12.68,17.035l-6.863-35.34L1425.225,945.852z"
				/>
			<path style="fill:#C4C1CC;" d="M1473.193,936.33c0,0-18.207,25.719-35.141,32.414l7.877,19.479l35.986-43.496L1473.193,936.33z"
				/>
		</g>
		<g>
			<path style="fill:#EEA886;" d="M1623.611,1088.009c0,0-4.672-11.511,1.745-13.069l2.419,10.342L1623.611,1088.009z"/>
			<g>
				<g>
					<g>
						<path style="fill:#3B3B40;" d="M1641.252,1811.253c0,0-24.854,11.62-24.684,15.476c0.17,3.854,3.788,9.247,6.68,9.119
							c2.891-0.127,42.763,0.767,46.5-2.054c3.738-2.821,18.438-30.749,27.771-32.61c9.333-1.86,22.101-16.426,11.312-32.365
							C1698.04,1752.879,1658.066,1808.92,1641.252,1811.253z"/>
					</g>
				</g>
				<g>
					<g>
						<path style="fill:#EEA886;" d="M1690.299,1761.67c0,0-17.825,13.582-23.82,25.435c-5.994,11.853-29.754,25.938-28.936,28.075
							c0.818,2.137,22.84,3.336,29.695-5.416c6.855-8.752,30.902-32.748,37.981-36.44s1.21-3.951,1.21-3.951L1690.299,1761.67z"/>
					</g>
				</g>
				<g>
					<path style="fill:#EEA886;" d="M1690.299,1761.67c0,0,11.345-23.518,12.238-31.362s22.857,8.353,5.949,40.716L1690.299,1761.67
						z"/>
				</g>
				<g>
					<g>
						<path style="fill:#3B3B40;" d="M1707.557,1794.895l-5.785,37.002l-3.854,0.17l-0.398-30.883
							C1697.519,1801.184,1705.729,1793.234,1707.557,1794.895z"/>
					</g>
				</g>
			</g>
			<g>
				<path style="fill:#353A3D;" d="M1713.619,1284.569c0,0-25.922,125.521-34.108,156.447s-15.917,76.858-16.827,95.051
					c-0.91,18.191,5.002,36.383,5.457,45.933c0.455,9.551,13.645,181.006,13.645,181.006s29.439,3.941,33.078,1.213
					c3.639-2.729,23.77-140.378,16.947-194.497c-6.821-54.12,6.367-69.583,24.559-95.051
					c18.191-25.468,48.663-121.883,47.754-133.253c-0.91-11.37-15.009-140.074-15.009-140.074S1733.078,1128.803,1713.619,1284.569z
					"/>
			</g>
			<g>
				<g>
					<path style="fill:#3B3B40;" d="M1852.027,1782.85c0,0-19.512,33.076-27.752,38.479c-11.183,7.334-4.176,14.749,1.135,14.756
						c5.312,0.007,32.436,1.947,38.412-4.835s8.941-27.11,14.501-32.426c5.559-5.315,10.646-24.934-2.708-31.586
						C1860.971,1759.944,1852.027,1782.85,1852.027,1782.85z"/>
				</g>
			</g>
			<g>
				<g>
					<path style="fill:#EEA886;" d="M1859.348,1765.509c0,0-21.219,41.528-25.07,47.251c-3.851,5.723,7.254,5.715,14.135,2.997
						c6.881-2.719,24.734-30.27,26.674-35.563c1.939-5.293,0.529-12.956,0.529-12.956L1859.348,1765.509z"/>
				</g>
			</g>
			<g>
				<g>
					<polygon style="fill:#3B3B40;" points="1883.118,1789.143 1877.96,1828.855 1875.227,1828.976 1876.076,1800.406 					"/>
				</g>
			</g>
			<g>
				<path style="fill:#EEA886;" d="M1859.348,1765.509c0,0,2.419-16.999-0.992-31.154c-3.41-14.155,23.194-3.923,23.194-3.923
					s1.093,22.109-5.935,36.807C1868.588,1781.937,1859.348,1765.509,1859.348,1765.509z"/>
			</g>
			<g>
				<path style="fill:#353A3D;" d="M1900.34,1238.22c0,0,2.926,110.021-4.805,149.132c-7.732,39.111-20.012,109.604-18.646,127.341
					c1.364,17.736,2.014,31.325,7.73,45.933c3.357,8.576,16.264,74.586-4.313,200.941l-26.602,1.211
					c0,0-18.202-130.295-21.841-166.679c-3.638-36.383-11.824-60.031-11.824-71.401c0-11.369-30.926-108.239-29.562-150.534
					c1.365-42.296-11.414-130.261-0.043-152.354C1816.818,1170.542,1900.34,1238.22,1900.34,1238.22z"/>
			</g>
			<g>
				<polygon style="fill:#EAD8CF;" points="1818.309,982.875 1850.852,1235.457 1718.829,1232.974 1726.444,1010.787 
					1761.486,986.684 1762.074,1017.317 1775.812,987.024 1799.006,1019.087 				"/>
			</g>
			<g>
				<path style="fill:#EDDCC5;" d="M1693.268,954.621c0,0,21.489,3.07,29.334,9.892c7.846,6.822,35.133,13.985,35.133,13.985
					l-44.001,23.535L1693.268,954.621z"/>
			</g>
			<g>
				<path style="fill:#3D3E52;" d="M1846.191,868.501c0,0,35.699,0.788,25.126,33.903c-10.574,33.116-49.458,45.736-64.808,26.635
					C1791.161,909.938,1846.191,868.501,1846.191,868.501z"/>
			</g>
			<g>
				<path style="fill:#4B5257;" d="M1720.669,1249.323c0,0,113.811,5.116,127.113,3.752c13.302-1.364-18.198-17.618-18.198-17.618
					l-100.818-2.297L1720.669,1249.323z"/>
			</g>
			<g>
				<path style="fill:#EEA886;" d="M1772.742,802.949c0,0-32.744,22.285-31.835,74.586c0.909,52.3,24.558,56.848,60.486,44.114
					c35.929-12.734,50.026-84.125,42.296-98.001C1835.957,809.771,1817.766,788.396,1772.742,802.949z"/>
			</g>
			<g>
				<path style="fill:#E55353;" d="M1815.037,946.662c0,0,18.191,14.554,26.832,16.827c8.642,2.274,40.932,15.918,43.205,23.194
					c2.274,7.276,43.205,125.066,42.75,131.889c-0.455,6.821-139.164,109.604-142.348,110.059s-20.921-25.014-20.921-25.014
					l47.298-40.476c0,0-11.369-62.307-13.644-87.319c-2.274-25.014-1.364-87.319,4.093-101.418
					C1807.761,960.306,1815.037,946.662,1815.037,946.662z"/>
			</g>
			<g>
				<path style="fill:#E55353;" d="M1890.25,1150.956c0,0-1.537,36.744,2.102,49.023c3.638,12.278,22.284,115.516,24.104,119.154
					c1.818,3.638-55.939-3.639-73.676-45.024s-26.832-100.508-25.923-105.511C1817.766,1163.596,1890.25,1150.956,1890.25,1150.956z
					"/>
			</g>
			<g>
				<path style="fill:#E55353;" d="M1764.556,951.665c0,0-34.563,58.213-34.563,100.054c0,41.84,11.787,71.401,10.896,86.864
					s-12.716,121.428-24.995,147.351s-39.112,39.112-39.112,39.112s24.104-58.668,29.107-107.33
					c5.002-48.662-9.096-175.548-9.096-175.548s0.909-44.114,10.005-50.481c9.096-6.367,28.651-15.918,36.838-22.284
					C1751.822,963.035,1764.556,951.665,1764.556,951.665z"/>
			</g>
			<g>
				<path style="fill:#B84242;" d="M1816.795,1160.299c0,0,53.499-49.117,55.545-50.822c2.047-1.706-4.092-18.419-4.092-18.419
					L1816.795,1160.299z"/>
			</g>
			<g>
				<polygon style="fill:#D5BCB1;" points="1764.556,951.665 1761.486,986.684 1735.293,1015.288 1750.506,963.821 				"/>
			</g>
			<g>
				<path style="fill:#EEA886;" d="M1775.812,987.024l-13.737,30.293l-0.588-30.634l3.069-35.017c0,0,2.653-2.285,3.937-11.358
					c0.471-3.274,0.762-7.429,0.668-12.682c-0.439-24.956-0.205-6.266-0.512-9.844c-2.418-28.308,46.389-8.868,46.389-8.868
					s-4.093,21.945,0,37.745C1819.131,962.467,1775.812,987.024,1775.812,987.024z"/>
			</g>
			<g>
				<path style="fill:#4D6EA3;" d="M1732.493,1116.98c0,0,29.562,33.654,31.38,37.975c1.82,4.32-55.256-26.152-55.256-26.152
					L1732.493,1116.98z"/>
			</g>
			<g>
				<path style="fill:#BDAEA7;" d="M1762.074,1017.317c-0.61,0.91-15.189,20.707-7.33,60.35c6.479,32.67,8.765,96.495,9.741,123.75
					c0.204,5.691,0.352,9.803,0.47,11.763l2.612-0.157c-0.116-1.929-0.263-6.027-0.466-11.699
					c-0.979-27.317-3.271-91.29-9.79-124.165C1749.692,1038.728,1761.883,1017.607,1762.074,1017.317L1762.074,1017.317z"/>
			</g>
			<g>
				<path style="fill:#5B83C2;" d="M1644.768,1130.934c0,0,2.271,60.715,32.014,69.588c29.743,8.873,71.743,17.763,80.953,17.422
					c9.209-0.342,10.574,4.093,10.574,4.093s0,29.675-2.047,38.885c-2.047,9.209-15.532,31.039-12.541,40.931
					c2.99,9.892,35.245,22.832,41.192,15.349s-9.892-20.807-12.62-24.559s19.826-62.196,22.875-77.656
					c3.047-15.461,8.051-43.09-20.374-54.687s-71.869-31.496-71.869-31.496L1644.768,1130.934z"/>
			</g>
			<g>
				<path style="fill:#EEA886;" d="M1639.489,862.852c0,0-26.604,16.502-25.695,44.699c0.909,28.197,18.646,55.257,50.254,49.572
					c31.608-5.685,27.515-50.936,29.22-56.849C1694.974,894.362,1692.244,857.849,1639.489,862.852z"/>
			</g>
			<g>
				<path style="fill:#EEA886;" d="M1693.268,954.621c-14.666,46.389-48.373,9.653-46.729,9.551c0.354-0.021,0.62-0.491,0.818-1.208
					c0.396-1.452,0.525-3.935,0.553-5.859c0.026-1.556-0.008-2.749-0.008-2.749s37.978-26.339,38.182-14.749
					C1686.282,951.196,1693.268,954.621,1693.268,954.621z"/>
			</g>
			<g>
				<path style="fill:#B08A63;" d="M1689.049,931.81c0,0-5.164-18.032-12.268-21.677c-7.102-3.646-9.777,5.143-13.87-2.132
					c-4.093-7.273-22.717-25.605-47.514-13.597c0,0-2.741-32.105,35.234-35.744c37.975-3.639,45.251,19.328,46.616,32.29
					C1698.611,903.912,1693.007,926.328,1689.049,931.81z"/>
			</g>
			<g>
				<path style="fill:#3D3E52;" d="M1824.609,902.404c0,0,8.15-26.461,2.246-35.33c-5.906-8.868-9.999,0.366-22.278-8.799
					c-12.279-9.165-54.836-4.706-58.344-16.714c-3.507-12.007,20.597-64.08,71.532-45.434
					C1868.702,814.774,1853.965,872.473,1824.609,902.404z"/>
			</g>
			<g>
				<path style="fill:#EEA886;" d="M1815.311,856.842c2.683-5.084,14.621-9.254,15.985,2.047
					c1.364,11.301-9.892,21.375-16.94,20.011C1807.306,877.535,1813.377,860.506,1815.311,856.842z"/>
			</g>
			<g>
				<path style="fill:#EEA886;" d="M1670.869,902.404c0.683-2.585,8.414-7.648,11.598,0c3.184,7.647-4.357,19.018-10.023,14.015
					C1666.776,911.416,1670.869,902.404,1670.869,902.404z"/>
			</g>
			<g>
				<path style="fill:#FFCB55;" d="M1693.268,954.621c0.746-1.571,9.652,1.75,17.623,13.643
					c8.924,13.315,11.37,29.675,12.393,36.156c1.023,6.48-11.71,44.342-2.614,65.83s14.212,28.993,11.824,46.729
					c-2.388,17.736-84.249,19.101-89.365,12.961s-21.83-52.869-20.807-88.342c1.022-35.474-12.62-42.978-10.233-46.048
					c2.389-3.069,31.04-34.108,34.451-31.38C1649.949,966.9,1677.578,987.707,1693.268,954.621z"/>
			</g>
			<g>
				<path style="fill:#EDDCC5;" d="M1609.359,1051.832c-23.91,9.864-54.895,18.152-66.096,24.19
					c-1.583,0.846-2.77,1.657-3.486,2.415c-5.799,6.14-15.69,21.488-27.629,22.171c-11.938,0.682-15.008-15.009-3.41-28.652
					c11.597-13.644-7.846-9.55,2.387-15.008c9.559-5.096,17.035,2.899,25.207-0.75c0.58-0.26,1.16-0.573,1.74-0.955
					c8.867-5.799,38.201-25.582,51.163-31.722c12.962-6.14,12.279-22.854,22.853-27.97c0,0,22.172-3.752,23.535,16.373
					C1636.988,1032.049,1636.646,1040.576,1609.359,1051.832z"/>
			</g>
			<g>
				<path style="fill:#EEA886;" d="M1543.264,1076.022c-1.583,0.846-2.77,1.657-3.486,2.415c-5.799,6.14-15.69,21.488-27.629,22.171
					c-11.938,0.682-15.008-15.009-3.41-28.652c11.597-13.644-8.301-9.777,2.387-15.008c9.729-4.761,17.035,2.899,25.207-0.75
					C1536.564,1056.498,1543.68,1066.083,1543.264,1076.022z"/>
			</g>
			<g>
				<path style="fill:#EEA886;" d="M1766.095,1205.798c0,0-3.131,3.959-10.18,2.822c-7.05-1.137-17.964-13.416-24.559-13.871
					s4.775,7.731,5.003,11.143c0.227,3.41,2.501,5.912-2.957,5.912c-5.457,0-34.108-12.962-40.021-12.052
					c-5.913,0.909-2.047,3.516-2.047,3.516s-6.821-1.924-7.276,2.624s26.832,21.147,29.789,21.829
					c2.955,0.683,26.15,6.595,43.204,2.047c17.055-4.548,27.742-7.276,27.742-7.276L1766.095,1205.798z"/>
			</g>
			<g>
				<path style="fill:#E55353;" d="M1764.556,1203.617c0,0,17.51,25.695,20.921,25.014c3.41-0.683,76.634-56.008,76.634-56.008
					l-45.315-12.324l-4.941,2.843L1764.556,1203.617z"/>
			</g>
			<g>
				<path style="fill:#A77860;" d="M1809.805,917.647c0,0-10.758,17.668-41.306,22.661h-0.007c0.471-3.274,0.746-7.635,0.665-12.888
					C1769.157,927.421,1790.254,928.883,1809.805,917.647z"/>
			</g>
			<g>
				<path style="fill:#A77860;" d="M1682.203,946.025c0,0-2.995,19.831-34.846,16.938c0.396-1.452,0.525-3.935,0.553-5.859
					C1647.91,957.104,1670.627,961.996,1682.203,946.025z"/>
			</g>
			<path style="fill:#EEA886;" d="M1626.247,1079.505c0,0-8.86,13.173-3.794,28.83c5.065,15.658,21.188,24.022,21.068,21.758
				S1629.154,1093.244,1626.247,1079.505z"/>
			<g>
				<polygon style="fill:#D5BCB1;" points="1815.037,946.662 1775.812,987.024 1799.006,1019.087 1831.398,958.318 				"/>
			</g>
		</g>
	</g>
</g>
</svg>